# xmcd CD database file
#
# Track frame offsets:
#	150
#	12540
#	27420
#	42827
#	61347
#	73252
#	88532
#	106735
#	124290
#	141927
#	160625
#
# Disc length: 2362 seconds
#
# Revision: 1
# Processed by: cddbd v1.5.2PL0 Copyright (c) Steve Scherf et al.
# Submitted via: CDex 1.51
#
DISCID=9409380b
DTITLE=Roy Buchanan - A Street Called Straight
DYEAR=1900
DGENRE=Blues
TTITLE0=RunningOut
TTITLE1=Keep What You Got
TTITLE2=Man On The Floor
TTITLE3=Good God Have Mercy
TTITLE4=Okay
TTITLE5=Caruso
TTITLE6=My Friend Jeff
TTITLE7=If Six Was Nine
TTITLE8=Guitar Cadenza
TTITLE9=The Messiah Will Come Again
TTITLE10=I Still Think About Ida Mae
EXTD=
EXTT0=
EXTT1=
EXTT2=
EXTT3=
EXTT4=
EXTT5=
EXTT6=
EXTT7=
EXTT8=
EXTT9=
EXTT10=
PLAYORDER=
